<mxfile host="65bd71144e" modified="2020-12-24T09:34:03.278Z" agent="5.0 (Macintosh; Intel Mac OS X 10_15_7) AppleWebKit/537.36 (KHTML, like Gecko) Code/1.52.1 Chrome/83.0.4103.122 Electron/9.3.5 Safari/537.36" etag="Q7OwDw_yCklBHEuc1iw4" version="13.10.0" type="embed">
    <diagram id="3vUDVO7shcAKKHClAKVJ" name="ER図">
        <mxGraphModel dx="384" dy="529" grid="0" gridSize="10" guides="0" tooltips="1" connect="0" arrows="1" fold="1" page="1" pageScale="1" pageWidth="1400" pageHeight="850" background="none" math="0" shadow="0">
            <root>
                <mxCell id="RTXXcHWHW-Dh-JXgVYpc-0"/>
                <mxCell id="RTXXcHWHW-Dh-JXgVYpc-1" parent="RTXXcHWHW-Dh-JXgVYpc-0"/>
                <mxCell id="Pdc_itYkCjrTwWyL_RnC-40" value="Budgetsテーブル" style="shape=table;html=1;whiteSpace=wrap;startSize=30;container=1;collapsible=0;childLayout=tableLayout;fontStyle=1;align=center;shadow=0;fontSize=14;" parent="RTXXcHWHW-Dh-JXgVYpc-1" vertex="1">
                    <mxGeometry x="225" y="625" width="746" height="182.4192352294922" as="geometry"/>
                </mxCell>
                <mxCell id="Pdc_itYkCjrTwWyL_RnC-41" value="" style="shape=partialRectangle;html=1;whiteSpace=wrap;collapsible=0;dropTarget=0;pointerEvents=0;fillColor=none;top=0;left=0;bottom=0;right=0;points=[[0,0.5],[1,0.5]];portConstraint=eastwest;fontSize=16;" parent="Pdc_itYkCjrTwWyL_RnC-40" vertex="1">
                    <mxGeometry y="30" width="746" height="40" as="geometry"/>
                </mxCell>
                <mxCell id="Pdc_itYkCjrTwWyL_RnC-59" value="house" style="shape=partialRectangle;html=1;whiteSpace=wrap;connectable=0;fillColor=none;top=0;left=0;bottom=0;right=0;overflow=hidden;" parent="Pdc_itYkCjrTwWyL_RnC-41" vertex="1">
                    <mxGeometry width="106" height="40" as="geometry"/>
                </mxCell>
                <mxCell id="Pdc_itYkCjrTwWyL_RnC-62" value="communications" style="shape=partialRectangle;html=1;whiteSpace=wrap;connectable=0;fillColor=none;top=0;left=0;bottom=0;right=0;overflow=hidden;" parent="Pdc_itYkCjrTwWyL_RnC-41" vertex="1">
                    <mxGeometry x="106" width="108" height="40" as="geometry"/>
                </mxCell>
                <mxCell id="Pdc_itYkCjrTwWyL_RnC-65" value="electricity" style="shape=partialRectangle;html=1;whiteSpace=wrap;connectable=0;fillColor=none;top=0;left=0;bottom=0;right=0;overflow=hidden;" parent="Pdc_itYkCjrTwWyL_RnC-41" vertex="1">
                    <mxGeometry x="214" width="106" height="40" as="geometry"/>
                </mxCell>
                <mxCell id="Pdc_itYkCjrTwWyL_RnC-42" value="gas" style="shape=partialRectangle;html=1;whiteSpace=wrap;connectable=0;fillColor=none;top=0;left=0;bottom=0;right=0;overflow=hidden;" parent="Pdc_itYkCjrTwWyL_RnC-41" vertex="1">
                    <mxGeometry x="320" width="107" height="40" as="geometry"/>
                </mxCell>
                <mxCell id="Pdc_itYkCjrTwWyL_RnC-43" value="water" style="shape=partialRectangle;html=1;whiteSpace=wrap;connectable=0;fillColor=none;top=0;left=0;bottom=0;right=0;overflow=hidden;" parent="Pdc_itYkCjrTwWyL_RnC-41" vertex="1">
                    <mxGeometry x="427" width="106" height="40" as="geometry"/>
                </mxCell>
                <mxCell id="Pdc_itYkCjrTwWyL_RnC-44" value="education" style="shape=partialRectangle;html=1;whiteSpace=wrap;connectable=0;fillColor=none;top=0;left=0;bottom=0;right=0;overflow=hidden;" parent="Pdc_itYkCjrTwWyL_RnC-41" vertex="1">
                    <mxGeometry x="533" width="107" height="40" as="geometry"/>
                </mxCell>
                <mxCell id="Pdc_itYkCjrTwWyL_RnC-68" value="premium" style="shape=partialRectangle;html=1;whiteSpace=wrap;connectable=0;fillColor=none;top=0;left=0;bottom=0;right=0;overflow=hidden;" parent="Pdc_itYkCjrTwWyL_RnC-41" vertex="1">
                    <mxGeometry x="640" width="106" height="40" as="geometry"/>
                </mxCell>
                <mxCell id="Pdc_itYkCjrTwWyL_RnC-45" value="" style="shape=partialRectangle;html=1;whiteSpace=wrap;collapsible=0;dropTarget=0;pointerEvents=0;fillColor=none;top=0;left=0;bottom=0;right=0;points=[[0,0.5],[1,0.5]];portConstraint=eastwest;" parent="Pdc_itYkCjrTwWyL_RnC-40" vertex="1">
                    <mxGeometry y="70" width="746" height="40" as="geometry"/>
                </mxCell>
                <mxCell id="Pdc_itYkCjrTwWyL_RnC-60" value="lawn" style="shape=partialRectangle;html=1;whiteSpace=wrap;connectable=0;fillColor=none;top=0;left=0;bottom=0;right=0;overflow=hidden;" parent="Pdc_itYkCjrTwWyL_RnC-45" vertex="1">
                    <mxGeometry width="106" height="40" as="geometry"/>
                </mxCell>
                <mxCell id="Pdc_itYkCjrTwWyL_RnC-63" value="fixed_etcetera" style="shape=partialRectangle;html=1;whiteSpace=wrap;connectable=0;fillColor=none;top=0;left=0;bottom=0;right=0;overflow=hidden;" parent="Pdc_itYkCjrTwWyL_RnC-45" vertex="1">
                    <mxGeometry x="106" width="108" height="40" as="geometry"/>
                </mxCell>
                <mxCell id="Pdc_itYkCjrTwWyL_RnC-66" value="food" style="shape=partialRectangle;html=1;whiteSpace=wrap;connectable=0;fillColor=none;top=0;left=0;bottom=0;right=0;overflow=hidden;" parent="Pdc_itYkCjrTwWyL_RnC-45" vertex="1">
                    <mxGeometry x="214" width="106" height="40" as="geometry"/>
                </mxCell>
                <mxCell id="Pdc_itYkCjrTwWyL_RnC-46" value="commodity" style="shape=partialRectangle;html=1;whiteSpace=wrap;connectable=0;fillColor=none;top=0;left=0;bottom=0;right=0;overflow=hidden;" parent="Pdc_itYkCjrTwWyL_RnC-45" vertex="1">
                    <mxGeometry x="320" width="107" height="40" as="geometry"/>
                </mxCell>
                <mxCell id="Pdc_itYkCjrTwWyL_RnC-47" value="transportation" style="shape=partialRectangle;html=1;whiteSpace=wrap;connectable=0;fillColor=none;top=0;left=0;bottom=0;right=0;overflow=hidden;" parent="Pdc_itYkCjrTwWyL_RnC-45" vertex="1">
                    <mxGeometry x="427" width="106" height="40" as="geometry"/>
                </mxCell>
                <mxCell id="Pdc_itYkCjrTwWyL_RnC-48" value="hobby" style="shape=partialRectangle;html=1;whiteSpace=wrap;connectable=0;fillColor=none;top=0;left=0;bottom=0;right=0;overflow=hidden;" parent="Pdc_itYkCjrTwWyL_RnC-45" vertex="1">
                    <mxGeometry x="533" width="107" height="40" as="geometry"/>
                </mxCell>
                <mxCell id="Pdc_itYkCjrTwWyL_RnC-69" value="clothes" style="shape=partialRectangle;html=1;whiteSpace=wrap;connectable=0;fillColor=none;top=0;left=0;bottom=0;right=0;overflow=hidden;" parent="Pdc_itYkCjrTwWyL_RnC-45" vertex="1">
                    <mxGeometry x="640" width="106" height="40" as="geometry"/>
                </mxCell>
                <mxCell id="Pdc_itYkCjrTwWyL_RnC-49" value="" style="shape=partialRectangle;html=1;whiteSpace=wrap;collapsible=0;dropTarget=0;pointerEvents=0;fillColor=none;top=0;left=0;bottom=0;right=0;points=[[0,0.5],[1,0.5]];portConstraint=eastwest;" parent="Pdc_itYkCjrTwWyL_RnC-40" vertex="1">
                    <mxGeometry y="110" width="746" height="40" as="geometry"/>
                </mxCell>
                <mxCell id="Pdc_itYkCjrTwWyL_RnC-61" value="health" style="shape=partialRectangle;html=1;whiteSpace=wrap;connectable=0;fillColor=none;top=0;left=0;bottom=0;right=0;overflow=hidden;" parent="Pdc_itYkCjrTwWyL_RnC-49" vertex="1">
                    <mxGeometry width="106" height="40" as="geometry"/>
                </mxCell>
                <mxCell id="Pdc_itYkCjrTwWyL_RnC-64" value="culture" style="shape=partialRectangle;html=1;whiteSpace=wrap;connectable=0;fillColor=none;top=0;left=0;bottom=0;right=0;overflow=hidden;" parent="Pdc_itYkCjrTwWyL_RnC-49" vertex="1">
                    <mxGeometry x="106" width="108" height="40" as="geometry"/>
                </mxCell>
                <mxCell id="Pdc_itYkCjrTwWyL_RnC-67" value="book" style="shape=partialRectangle;html=1;whiteSpace=wrap;connectable=0;fillColor=none;top=0;left=0;bottom=0;right=0;overflow=hidden;" parent="Pdc_itYkCjrTwWyL_RnC-49" vertex="1">
                    <mxGeometry x="214" width="106" height="40" as="geometry"/>
                </mxCell>
                <mxCell id="Pdc_itYkCjrTwWyL_RnC-50" value="cafe" style="shape=partialRectangle;html=1;whiteSpace=wrap;connectable=0;fillColor=none;top=0;left=0;bottom=0;right=0;overflow=hidden;" parent="Pdc_itYkCjrTwWyL_RnC-49" vertex="1">
                    <mxGeometry x="320" width="107" height="40" as="geometry"/>
                </mxCell>
                <mxCell id="Pdc_itYkCjrTwWyL_RnC-51" value="social" style="shape=partialRectangle;html=1;whiteSpace=wrap;connectable=0;fillColor=none;top=0;left=0;bottom=0;right=0;overflow=hidden;" parent="Pdc_itYkCjrTwWyL_RnC-49" vertex="1">
                    <mxGeometry x="427" width="106" height="40" as="geometry"/>
                </mxCell>
                <mxCell id="Pdc_itYkCjrTwWyL_RnC-52" value="special" style="shape=partialRectangle;html=1;whiteSpace=wrap;connectable=0;fillColor=none;top=0;left=0;bottom=0;right=0;overflow=hidden;" parent="Pdc_itYkCjrTwWyL_RnC-49" vertex="1">
                    <mxGeometry x="533" width="107" height="40" as="geometry"/>
                </mxCell>
                <mxCell id="Pdc_itYkCjrTwWyL_RnC-70" value="variable_etcetera" style="shape=partialRectangle;html=1;whiteSpace=wrap;connectable=0;fillColor=none;top=0;left=0;bottom=0;right=0;overflow=hidden;" parent="Pdc_itYkCjrTwWyL_RnC-49" vertex="1">
                    <mxGeometry x="640" width="106" height="40" as="geometry"/>
                </mxCell>
                <mxCell id="1EfdYVoYzrXJpQd_BGLH-2" style="shape=partialRectangle;html=1;whiteSpace=wrap;collapsible=0;dropTarget=0;pointerEvents=0;fillColor=none;top=0;left=0;bottom=0;right=0;points=[[0,0.5],[1,0.5]];portConstraint=eastwest;" parent="Pdc_itYkCjrTwWyL_RnC-40" vertex="1">
                    <mxGeometry y="150" width="746" height="32" as="geometry"/>
                </mxCell>
                <mxCell id="1EfdYVoYzrXJpQd_BGLH-3" value="user_id" style="shape=partialRectangle;html=1;whiteSpace=wrap;connectable=0;fillColor=none;top=0;left=0;bottom=0;right=0;overflow=hidden;" parent="1EfdYVoYzrXJpQd_BGLH-2" vertex="1">
                    <mxGeometry width="106" height="32" as="geometry"/>
                </mxCell>
                <mxCell id="1EfdYVoYzrXJpQd_BGLH-4" style="shape=partialRectangle;html=1;whiteSpace=wrap;connectable=0;fillColor=none;top=0;left=0;bottom=0;right=0;overflow=hidden;" parent="1EfdYVoYzrXJpQd_BGLH-2" vertex="1">
                    <mxGeometry x="106" width="108" height="32" as="geometry"/>
                </mxCell>
                <mxCell id="1EfdYVoYzrXJpQd_BGLH-5" style="shape=partialRectangle;html=1;whiteSpace=wrap;connectable=0;fillColor=none;top=0;left=0;bottom=0;right=0;overflow=hidden;" parent="1EfdYVoYzrXJpQd_BGLH-2" vertex="1">
                    <mxGeometry x="214" width="106" height="32" as="geometry"/>
                </mxCell>
                <mxCell id="1EfdYVoYzrXJpQd_BGLH-6" style="shape=partialRectangle;html=1;whiteSpace=wrap;connectable=0;fillColor=none;top=0;left=0;bottom=0;right=0;overflow=hidden;" parent="1EfdYVoYzrXJpQd_BGLH-2" vertex="1">
                    <mxGeometry x="320" width="107" height="32" as="geometry"/>
                </mxCell>
                <mxCell id="1EfdYVoYzrXJpQd_BGLH-7" style="shape=partialRectangle;html=1;whiteSpace=wrap;connectable=0;fillColor=none;top=0;left=0;bottom=0;right=0;overflow=hidden;" parent="1EfdYVoYzrXJpQd_BGLH-2" vertex="1">
                    <mxGeometry x="427" width="106" height="32" as="geometry"/>
                </mxCell>
                <mxCell id="1EfdYVoYzrXJpQd_BGLH-8" style="shape=partialRectangle;html=1;whiteSpace=wrap;connectable=0;fillColor=none;top=0;left=0;bottom=0;right=0;overflow=hidden;" parent="1EfdYVoYzrXJpQd_BGLH-2" vertex="1">
                    <mxGeometry x="533" width="107" height="32" as="geometry"/>
                </mxCell>
                <mxCell id="1EfdYVoYzrXJpQd_BGLH-9" style="shape=partialRectangle;html=1;whiteSpace=wrap;connectable=0;fillColor=none;top=0;left=0;bottom=0;right=0;overflow=hidden;" parent="1EfdYVoYzrXJpQd_BGLH-2" vertex="1">
                    <mxGeometry x="640" width="106" height="32" as="geometry"/>
                </mxCell>
                <mxCell id="Pdc_itYkCjrTwWyL_RnC-84" value="&lt;span style=&quot;font-size: 14px;&quot;&gt;Incomesテーブル&lt;/span&gt;" style="shape=table;html=1;whiteSpace=wrap;startSize=30;container=1;collapsible=0;childLayout=tableLayout;fontStyle=1;align=center;shadow=0;fontSize=14;" parent="RTXXcHWHW-Dh-JXgVYpc-1" vertex="1">
                    <mxGeometry x="230" y="21" width="177" height="215" as="geometry"/>
                </mxCell>
                <mxCell id="Pdc_itYkCjrTwWyL_RnC-109" style="shape=partialRectangle;html=1;whiteSpace=wrap;collapsible=0;dropTarget=0;pointerEvents=0;fillColor=none;top=0;left=0;bottom=0;right=0;points=[[0,0.5],[1,0.5]];portConstraint=eastwest;" parent="Pdc_itYkCjrTwWyL_RnC-84" vertex="1">
                    <mxGeometry y="30" width="177" height="37" as="geometry"/>
                </mxCell>
                <mxCell id="Pdc_itYkCjrTwWyL_RnC-110" value="&lt;span style=&quot;font-size: 15px&quot;&gt;income_category_id&lt;/span&gt;" style="shape=partialRectangle;html=1;whiteSpace=wrap;connectable=0;fillColor=none;top=0;left=0;bottom=0;right=0;overflow=hidden;" parent="Pdc_itYkCjrTwWyL_RnC-109" vertex="1">
                    <mxGeometry width="177" height="37" as="geometry"/>
                </mxCell>
                <mxCell id="0" style="shape=partialRectangle;html=1;whiteSpace=wrap;collapsible=0;dropTarget=0;pointerEvents=0;fillColor=none;top=0;left=0;bottom=0;right=0;points=[[0,0.5],[1,0.5]];portConstraint=eastwest;" parent="Pdc_itYkCjrTwWyL_RnC-84" vertex="1">
                    <mxGeometry y="67" width="177" height="37" as="geometry"/>
                </mxCell>
                <mxCell id="1" value="&lt;span style=&quot;font-size: 15px&quot;&gt;remarks&lt;/span&gt;" style="shape=partialRectangle;html=1;whiteSpace=wrap;connectable=0;fillColor=none;top=0;left=0;bottom=0;right=0;overflow=hidden;" parent="0" vertex="1">
                    <mxGeometry width="177" height="37" as="geometry"/>
                </mxCell>
                <mxCell id="Pdc_itYkCjrTwWyL_RnC-113" style="shape=partialRectangle;html=1;whiteSpace=wrap;collapsible=0;dropTarget=0;pointerEvents=0;fillColor=none;top=0;left=0;bottom=0;right=0;points=[[0,0.5],[1,0.5]];portConstraint=eastwest;" parent="Pdc_itYkCjrTwWyL_RnC-84" vertex="1">
                    <mxGeometry y="104" width="177" height="37" as="geometry"/>
                </mxCell>
                <mxCell id="Pdc_itYkCjrTwWyL_RnC-114" value="&lt;span style=&quot;font-size: 15px&quot;&gt;price&lt;/span&gt;" style="shape=partialRectangle;html=1;whiteSpace=wrap;connectable=0;fillColor=none;top=0;left=0;bottom=0;right=0;overflow=hidden;" parent="Pdc_itYkCjrTwWyL_RnC-113" vertex="1">
                    <mxGeometry width="177" height="37" as="geometry"/>
                </mxCell>
                <mxCell id="Pdc_itYkCjrTwWyL_RnC-93" value="" style="shape=partialRectangle;html=1;whiteSpace=wrap;collapsible=0;dropTarget=0;pointerEvents=0;fillColor=none;top=0;left=0;bottom=0;right=0;points=[[0,0.5],[1,0.5]];portConstraint=eastwest;" parent="Pdc_itYkCjrTwWyL_RnC-84" vertex="1">
                    <mxGeometry y="141" width="177" height="37" as="geometry"/>
                </mxCell>
                <mxCell id="Pdc_itYkCjrTwWyL_RnC-94" value="&lt;span style=&quot;font-size: 15px&quot;&gt;income_date&lt;/span&gt;" style="shape=partialRectangle;html=1;whiteSpace=wrap;connectable=0;fillColor=none;top=0;left=0;bottom=0;right=0;overflow=hidden;" parent="Pdc_itYkCjrTwWyL_RnC-93" vertex="1">
                    <mxGeometry width="177" height="37" as="geometry"/>
                </mxCell>
                <mxCell id="Pdc_itYkCjrTwWyL_RnC-101" value="" style="shape=partialRectangle;html=1;whiteSpace=wrap;collapsible=0;dropTarget=0;pointerEvents=0;fillColor=none;top=0;left=0;bottom=0;right=0;points=[[0,0.5],[1,0.5]];portConstraint=eastwest;" parent="Pdc_itYkCjrTwWyL_RnC-84" vertex="1">
                    <mxGeometry y="178" width="177" height="37" as="geometry"/>
                </mxCell>
                <mxCell id="Pdc_itYkCjrTwWyL_RnC-102" value="&lt;span style=&quot;font-size: 15px&quot;&gt;user_id&lt;/span&gt;" style="shape=partialRectangle;html=1;whiteSpace=wrap;connectable=0;fillColor=none;top=0;left=0;bottom=0;right=0;overflow=hidden;" parent="Pdc_itYkCjrTwWyL_RnC-101" vertex="1">
                    <mxGeometry width="177" height="37" as="geometry"/>
                </mxCell>
                <mxCell id="Pdc_itYkCjrTwWyL_RnC-118" value="&lt;span style=&quot;font-size: 14px;&quot;&gt;FixedCostsテーブル&lt;/span&gt;" style="shape=table;html=1;whiteSpace=wrap;startSize=30;container=1;collapsible=0;childLayout=tableLayout;fontStyle=1;align=center;shadow=0;fontSize=14;" parent="RTXXcHWHW-Dh-JXgVYpc-1" vertex="1">
                    <mxGeometry x="493" y="21" width="177" height="217" as="geometry"/>
                </mxCell>
                <mxCell id="Pdc_itYkCjrTwWyL_RnC-119" style="shape=partialRectangle;html=1;whiteSpace=wrap;collapsible=0;dropTarget=0;pointerEvents=0;fillColor=none;top=0;left=0;bottom=0;right=0;points=[[0,0.5],[1,0.5]];portConstraint=eastwest;" parent="Pdc_itYkCjrTwWyL_RnC-118" vertex="1">
                    <mxGeometry y="30" width="177" height="37" as="geometry"/>
                </mxCell>
                <mxCell id="Pdc_itYkCjrTwWyL_RnC-120" value="&lt;span style=&quot;font-size: 15px&quot;&gt;fixed_cost_category_id&lt;/span&gt;" style="shape=partialRectangle;html=1;whiteSpace=wrap;connectable=0;fillColor=none;top=0;left=0;bottom=0;right=0;overflow=hidden;" parent="Pdc_itYkCjrTwWyL_RnC-119" vertex="1">
                    <mxGeometry width="177" height="37" as="geometry"/>
                </mxCell>
                <mxCell id="Pdc_itYkCjrTwWyL_RnC-121" style="shape=partialRectangle;html=1;whiteSpace=wrap;collapsible=0;dropTarget=0;pointerEvents=0;fillColor=none;top=0;left=0;bottom=0;right=0;points=[[0,0.5],[1,0.5]];portConstraint=eastwest;" parent="Pdc_itYkCjrTwWyL_RnC-118" vertex="1">
                    <mxGeometry y="67" width="177" height="38" as="geometry"/>
                </mxCell>
                <mxCell id="Pdc_itYkCjrTwWyL_RnC-122" value="&lt;span style=&quot;font-size: 15px&quot;&gt;remarks&lt;/span&gt;" style="shape=partialRectangle;html=1;whiteSpace=wrap;connectable=0;fillColor=none;top=0;left=0;bottom=0;right=0;overflow=hidden;" parent="Pdc_itYkCjrTwWyL_RnC-121" vertex="1">
                    <mxGeometry width="177" height="38" as="geometry"/>
                </mxCell>
                <mxCell id="Pdc_itYkCjrTwWyL_RnC-123" style="shape=partialRectangle;html=1;whiteSpace=wrap;collapsible=0;dropTarget=0;pointerEvents=0;fillColor=none;top=0;left=0;bottom=0;right=0;points=[[0,0.5],[1,0.5]];portConstraint=eastwest;" parent="Pdc_itYkCjrTwWyL_RnC-118" vertex="1">
                    <mxGeometry y="105" width="177" height="37" as="geometry"/>
                </mxCell>
                <mxCell id="Pdc_itYkCjrTwWyL_RnC-124" value="&lt;span style=&quot;font-size: 15px&quot;&gt;price&lt;/span&gt;" style="shape=partialRectangle;html=1;whiteSpace=wrap;connectable=0;fillColor=none;top=0;left=0;bottom=0;right=0;overflow=hidden;" parent="Pdc_itYkCjrTwWyL_RnC-123" vertex="1">
                    <mxGeometry width="177" height="37" as="geometry"/>
                </mxCell>
                <mxCell id="Pdc_itYkCjrTwWyL_RnC-125" value="" style="shape=partialRectangle;html=1;whiteSpace=wrap;collapsible=0;dropTarget=0;pointerEvents=0;fillColor=none;top=0;left=0;bottom=0;right=0;points=[[0,0.5],[1,0.5]];portConstraint=eastwest;" parent="Pdc_itYkCjrTwWyL_RnC-118" vertex="1">
                    <mxGeometry y="142" width="177" height="38" as="geometry"/>
                </mxCell>
                <mxCell id="Pdc_itYkCjrTwWyL_RnC-126" value="&lt;span style=&quot;font-size: 15px&quot;&gt;expense_date&lt;/span&gt;" style="shape=partialRectangle;html=1;whiteSpace=wrap;connectable=0;fillColor=none;top=0;left=0;bottom=0;right=0;overflow=hidden;" parent="Pdc_itYkCjrTwWyL_RnC-125" vertex="1">
                    <mxGeometry width="177" height="38" as="geometry"/>
                </mxCell>
                <mxCell id="Pdc_itYkCjrTwWyL_RnC-127" value="" style="shape=partialRectangle;html=1;whiteSpace=wrap;collapsible=0;dropTarget=0;pointerEvents=0;fillColor=none;top=0;left=0;bottom=0;right=0;points=[[0,0.5],[1,0.5]];portConstraint=eastwest;" parent="Pdc_itYkCjrTwWyL_RnC-118" vertex="1">
                    <mxGeometry y="180" width="177" height="37" as="geometry"/>
                </mxCell>
                <mxCell id="Pdc_itYkCjrTwWyL_RnC-128" value="&lt;span style=&quot;font-size: 15px&quot;&gt;user_id&lt;/span&gt;" style="shape=partialRectangle;html=1;whiteSpace=wrap;connectable=0;fillColor=none;top=0;left=0;bottom=0;right=0;overflow=hidden;" parent="Pdc_itYkCjrTwWyL_RnC-127" vertex="1">
                    <mxGeometry width="177" height="37" as="geometry"/>
                </mxCell>
                <mxCell id="Pdc_itYkCjrTwWyL_RnC-129" value="&lt;span style=&quot;font-size: 14px;&quot;&gt;VariableCostsテーブル&lt;/span&gt;" style="shape=table;html=1;whiteSpace=wrap;startSize=30;container=1;collapsible=0;childLayout=tableLayout;fontStyle=1;align=center;shadow=0;fontSize=14;" parent="RTXXcHWHW-Dh-JXgVYpc-1" vertex="1">
                    <mxGeometry x="758" y="20" width="177" height="217" as="geometry"/>
                </mxCell>
                <mxCell id="Pdc_itYkCjrTwWyL_RnC-130" style="shape=partialRectangle;html=1;whiteSpace=wrap;collapsible=0;dropTarget=0;pointerEvents=0;fillColor=none;top=0;left=0;bottom=0;right=0;points=[[0,0.5],[1,0.5]];portConstraint=eastwest;" parent="Pdc_itYkCjrTwWyL_RnC-129" vertex="1">
                    <mxGeometry y="30" width="177" height="37" as="geometry"/>
                </mxCell>
                <mxCell id="Pdc_itYkCjrTwWyL_RnC-131" value="&lt;span style=&quot;font-size: 15px&quot;&gt;variable_cost_category_id&lt;/span&gt;" style="shape=partialRectangle;html=1;whiteSpace=wrap;connectable=0;fillColor=none;top=0;left=0;bottom=0;right=0;overflow=hidden;" parent="Pdc_itYkCjrTwWyL_RnC-130" vertex="1">
                    <mxGeometry width="177" height="37" as="geometry"/>
                </mxCell>
                <mxCell id="Pdc_itYkCjrTwWyL_RnC-132" style="shape=partialRectangle;html=1;whiteSpace=wrap;collapsible=0;dropTarget=0;pointerEvents=0;fillColor=none;top=0;left=0;bottom=0;right=0;points=[[0,0.5],[1,0.5]];portConstraint=eastwest;" parent="Pdc_itYkCjrTwWyL_RnC-129" vertex="1">
                    <mxGeometry y="67" width="177" height="38" as="geometry"/>
                </mxCell>
                <mxCell id="Pdc_itYkCjrTwWyL_RnC-133" value="&lt;span style=&quot;font-size: 15px&quot;&gt;remarks&lt;/span&gt;" style="shape=partialRectangle;html=1;whiteSpace=wrap;connectable=0;fillColor=none;top=0;left=0;bottom=0;right=0;overflow=hidden;" parent="Pdc_itYkCjrTwWyL_RnC-132" vertex="1">
                    <mxGeometry width="177" height="38" as="geometry"/>
                </mxCell>
                <mxCell id="Pdc_itYkCjrTwWyL_RnC-134" style="shape=partialRectangle;html=1;whiteSpace=wrap;collapsible=0;dropTarget=0;pointerEvents=0;fillColor=none;top=0;left=0;bottom=0;right=0;points=[[0,0.5],[1,0.5]];portConstraint=eastwest;" parent="Pdc_itYkCjrTwWyL_RnC-129" vertex="1">
                    <mxGeometry y="105" width="177" height="37" as="geometry"/>
                </mxCell>
                <mxCell id="Pdc_itYkCjrTwWyL_RnC-135" value="&lt;span style=&quot;font-size: 15px&quot;&gt;price&lt;/span&gt;" style="shape=partialRectangle;html=1;whiteSpace=wrap;connectable=0;fillColor=none;top=0;left=0;bottom=0;right=0;overflow=hidden;" parent="Pdc_itYkCjrTwWyL_RnC-134" vertex="1">
                    <mxGeometry width="177" height="37" as="geometry"/>
                </mxCell>
                <mxCell id="Pdc_itYkCjrTwWyL_RnC-136" value="" style="shape=partialRectangle;html=1;whiteSpace=wrap;collapsible=0;dropTarget=0;pointerEvents=0;fillColor=none;top=0;left=0;bottom=0;right=0;points=[[0,0.5],[1,0.5]];portConstraint=eastwest;" parent="Pdc_itYkCjrTwWyL_RnC-129" vertex="1">
                    <mxGeometry y="142" width="177" height="38" as="geometry"/>
                </mxCell>
                <mxCell id="Pdc_itYkCjrTwWyL_RnC-137" value="&lt;span style=&quot;font-size: 15px&quot;&gt;expense_date&lt;/span&gt;" style="shape=partialRectangle;html=1;whiteSpace=wrap;connectable=0;fillColor=none;top=0;left=0;bottom=0;right=0;overflow=hidden;" parent="Pdc_itYkCjrTwWyL_RnC-136" vertex="1">
                    <mxGeometry width="177" height="38" as="geometry"/>
                </mxCell>
                <mxCell id="Pdc_itYkCjrTwWyL_RnC-138" value="" style="shape=partialRectangle;html=1;whiteSpace=wrap;collapsible=0;dropTarget=0;pointerEvents=0;fillColor=none;top=0;left=0;bottom=0;right=0;points=[[0,0.5],[1,0.5]];portConstraint=eastwest;" parent="Pdc_itYkCjrTwWyL_RnC-129" vertex="1">
                    <mxGeometry y="180" width="177" height="37" as="geometry"/>
                </mxCell>
                <mxCell id="Pdc_itYkCjrTwWyL_RnC-139" value="&lt;span style=&quot;font-size: 15px&quot;&gt;user_id&lt;/span&gt;" style="shape=partialRectangle;html=1;whiteSpace=wrap;connectable=0;fillColor=none;top=0;left=0;bottom=0;right=0;overflow=hidden;labelBackgroundColor=none;" parent="Pdc_itYkCjrTwWyL_RnC-138" vertex="1">
                    <mxGeometry width="177" height="37" as="geometry"/>
                </mxCell>
                <mxCell id="Pdc_itYkCjrTwWyL_RnC-140" value="&lt;font style=&quot;font-size: 14px&quot;&gt;PurchasePlansテーブル&lt;/font&gt;" style="shape=table;html=1;whiteSpace=wrap;startSize=30;container=1;collapsible=0;childLayout=tableLayout;fontStyle=1;align=center;shadow=0;fontSize=16;" parent="RTXXcHWHW-Dh-JXgVYpc-1" vertex="1">
                    <mxGeometry x="1004" y="297" width="177" height="252" as="geometry"/>
                </mxCell>
                <mxCell id="Pdc_itYkCjrTwWyL_RnC-141" style="shape=partialRectangle;html=1;whiteSpace=wrap;collapsible=0;dropTarget=0;pointerEvents=0;fillColor=none;top=0;left=0;bottom=0;right=0;points=[[0,0.5],[1,0.5]];portConstraint=eastwest;" parent="Pdc_itYkCjrTwWyL_RnC-140" vertex="1">
                    <mxGeometry y="30" width="177" height="37" as="geometry"/>
                </mxCell>
                <mxCell id="Pdc_itYkCjrTwWyL_RnC-142" value="&lt;span style=&quot;font-size: 15px&quot;&gt;name&lt;/span&gt;" style="shape=partialRectangle;html=1;whiteSpace=wrap;connectable=0;fillColor=none;top=0;left=0;bottom=0;right=0;overflow=hidden;" parent="Pdc_itYkCjrTwWyL_RnC-141" vertex="1">
                    <mxGeometry width="177" height="37" as="geometry"/>
                </mxCell>
                <mxCell id="Pdc_itYkCjrTwWyL_RnC-143" style="shape=partialRectangle;html=1;whiteSpace=wrap;collapsible=0;dropTarget=0;pointerEvents=0;fillColor=none;top=0;left=0;bottom=0;right=0;points=[[0,0.5],[1,0.5]];portConstraint=eastwest;" parent="Pdc_itYkCjrTwWyL_RnC-140" vertex="1">
                    <mxGeometry y="67" width="177" height="37" as="geometry"/>
                </mxCell>
                <mxCell id="Pdc_itYkCjrTwWyL_RnC-144" value="&lt;span style=&quot;font-size: 15px&quot;&gt;remarks&lt;/span&gt;" style="shape=partialRectangle;html=1;whiteSpace=wrap;connectable=0;fillColor=none;top=0;left=0;bottom=0;right=0;overflow=hidden;" parent="Pdc_itYkCjrTwWyL_RnC-143" vertex="1">
                    <mxGeometry width="177" height="37" as="geometry"/>
                </mxCell>
                <mxCell id="Pdc_itYkCjrTwWyL_RnC-145" style="shape=partialRectangle;html=1;whiteSpace=wrap;collapsible=0;dropTarget=0;pointerEvents=0;fillColor=none;top=0;left=0;bottom=0;right=0;points=[[0,0.5],[1,0.5]];portConstraint=eastwest;" parent="Pdc_itYkCjrTwWyL_RnC-140" vertex="1">
                    <mxGeometry y="104" width="177" height="37" as="geometry"/>
                </mxCell>
                <mxCell id="Pdc_itYkCjrTwWyL_RnC-146" value="&lt;span style=&quot;font-size: 15px&quot;&gt;price&lt;/span&gt;" style="shape=partialRectangle;html=1;whiteSpace=wrap;connectable=0;fillColor=none;top=0;left=0;bottom=0;right=0;overflow=hidden;" parent="Pdc_itYkCjrTwWyL_RnC-145" vertex="1">
                    <mxGeometry width="177" height="37" as="geometry"/>
                </mxCell>
                <mxCell id="Pdc_itYkCjrTwWyL_RnC-147" value="" style="shape=partialRectangle;html=1;whiteSpace=wrap;collapsible=0;dropTarget=0;pointerEvents=0;fillColor=none;top=0;left=0;bottom=0;right=0;points=[[0,0.5],[1,0.5]];portConstraint=eastwest;" parent="Pdc_itYkCjrTwWyL_RnC-140" vertex="1">
                    <mxGeometry y="141" width="177" height="37" as="geometry"/>
                </mxCell>
                <mxCell id="Pdc_itYkCjrTwWyL_RnC-148" value="&lt;span style=&quot;font-size: 15px&quot;&gt;purchase_date&lt;/span&gt;" style="shape=partialRectangle;html=1;whiteSpace=wrap;connectable=0;fillColor=none;top=0;left=0;bottom=0;right=0;overflow=hidden;" parent="Pdc_itYkCjrTwWyL_RnC-147" vertex="1">
                    <mxGeometry width="177" height="37" as="geometry"/>
                </mxCell>
                <mxCell id="1EfdYVoYzrXJpQd_BGLH-0" style="shape=partialRectangle;html=1;whiteSpace=wrap;collapsible=0;dropTarget=0;pointerEvents=0;fillColor=none;top=0;left=0;bottom=0;right=0;points=[[0,0.5],[1,0.5]];portConstraint=eastwest;" parent="Pdc_itYkCjrTwWyL_RnC-140" vertex="1">
                    <mxGeometry y="178" width="177" height="37" as="geometry"/>
                </mxCell>
                <mxCell id="1EfdYVoYzrXJpQd_BGLH-1" value="image" style="shape=partialRectangle;html=1;whiteSpace=wrap;connectable=0;fillColor=none;top=0;left=0;bottom=0;right=0;overflow=hidden;" parent="1EfdYVoYzrXJpQd_BGLH-0" vertex="1">
                    <mxGeometry width="177" height="37" as="geometry"/>
                </mxCell>
                <mxCell id="Pdc_itYkCjrTwWyL_RnC-149" value="" style="shape=partialRectangle;html=1;whiteSpace=wrap;collapsible=0;dropTarget=0;pointerEvents=0;fillColor=none;top=0;left=0;bottom=0;right=0;points=[[0,0.5],[1,0.5]];portConstraint=eastwest;" parent="Pdc_itYkCjrTwWyL_RnC-140" vertex="1">
                    <mxGeometry y="215" width="177" height="37" as="geometry"/>
                </mxCell>
                <mxCell id="Pdc_itYkCjrTwWyL_RnC-150" value="&lt;span style=&quot;font-size: 15px&quot;&gt;user_id&lt;/span&gt;" style="shape=partialRectangle;html=1;whiteSpace=wrap;connectable=0;fillColor=none;top=0;left=0;bottom=0;right=0;overflow=hidden;" parent="Pdc_itYkCjrTwWyL_RnC-149" vertex="1">
                    <mxGeometry width="177" height="37" as="geometry"/>
                </mxCell>
                <mxCell id="1EfdYVoYzrXJpQd_BGLH-10" value="&lt;span style=&quot;font-size: 14px;&quot;&gt;Usersテーブル&lt;/span&gt;" style="shape=table;html=1;whiteSpace=wrap;startSize=30;container=1;collapsible=0;childLayout=tableLayout;fontStyle=1;align=center;shadow=0;fontSize=14;" parent="RTXXcHWHW-Dh-JXgVYpc-1" vertex="1">
                    <mxGeometry x="498" y="392" width="177" height="149" as="geometry"/>
                </mxCell>
                <mxCell id="1EfdYVoYzrXJpQd_BGLH-11" style="shape=partialRectangle;html=1;whiteSpace=wrap;collapsible=0;dropTarget=0;pointerEvents=0;fillColor=none;top=0;left=0;bottom=0;right=0;points=[[0,0.5],[1,0.5]];portConstraint=eastwest;" parent="1EfdYVoYzrXJpQd_BGLH-10" vertex="1">
                    <mxGeometry y="30" width="177" height="39" as="geometry"/>
                </mxCell>
                <mxCell id="1EfdYVoYzrXJpQd_BGLH-12" value="&lt;span style=&quot;font-size: 15px&quot;&gt;nickname&lt;/span&gt;" style="shape=partialRectangle;html=1;whiteSpace=wrap;connectable=0;fillColor=none;top=0;left=0;bottom=0;right=0;overflow=hidden;" parent="1EfdYVoYzrXJpQd_BGLH-11" vertex="1">
                    <mxGeometry width="177" height="39" as="geometry"/>
                </mxCell>
                <mxCell id="1EfdYVoYzrXJpQd_BGLH-13" style="shape=partialRectangle;html=1;whiteSpace=wrap;collapsible=0;dropTarget=0;pointerEvents=0;fillColor=none;top=0;left=0;bottom=0;right=0;points=[[0,0.5],[1,0.5]];portConstraint=eastwest;" parent="1EfdYVoYzrXJpQd_BGLH-10" vertex="1">
                    <mxGeometry y="69" width="177" height="40" as="geometry"/>
                </mxCell>
                <mxCell id="1EfdYVoYzrXJpQd_BGLH-14" value="&lt;span style=&quot;font-size: 15px&quot;&gt;email&lt;/span&gt;" style="shape=partialRectangle;html=1;whiteSpace=wrap;connectable=0;fillColor=none;top=0;left=0;bottom=0;right=0;overflow=hidden;" parent="1EfdYVoYzrXJpQd_BGLH-13" vertex="1">
                    <mxGeometry width="177" height="40" as="geometry"/>
                </mxCell>
                <mxCell id="1EfdYVoYzrXJpQd_BGLH-15" style="shape=partialRectangle;html=1;whiteSpace=wrap;collapsible=0;dropTarget=0;pointerEvents=0;fillColor=none;top=0;left=0;bottom=0;right=0;points=[[0,0.5],[1,0.5]];portConstraint=eastwest;" parent="1EfdYVoYzrXJpQd_BGLH-10" vertex="1">
                    <mxGeometry y="109" width="177" height="40" as="geometry"/>
                </mxCell>
                <mxCell id="1EfdYVoYzrXJpQd_BGLH-16" value="&lt;span style=&quot;font-size: 15px&quot;&gt;password&lt;/span&gt;" style="shape=partialRectangle;html=1;whiteSpace=wrap;connectable=0;fillColor=none;top=0;left=0;bottom=0;right=0;overflow=hidden;" parent="1EfdYVoYzrXJpQd_BGLH-15" vertex="1">
                    <mxGeometry width="177" height="40" as="geometry"/>
                </mxCell>
                <mxCell id="CgL5xedI93GFoSFBYOzG-2" value="" style="edgeStyle=orthogonalEdgeStyle;fontSize=12;html=1;endArrow=halfCircle;endFill=0;strokeWidth=2;startArrow=ERone;startFill=0;" parent="RTXXcHWHW-Dh-JXgVYpc-1" edge="1">
                    <mxGeometry width="100" height="100" relative="1" as="geometry">
                        <mxPoint x="655" y="392" as="sourcePoint"/>
                        <mxPoint x="845" y="239" as="targetPoint"/>
                        <Array as="points">
                            <mxPoint x="655" y="290"/>
                            <mxPoint x="845" y="290"/>
                        </Array>
                    </mxGeometry>
                </mxCell>
                <mxCell id="CgL5xedI93GFoSFBYOzG-3" value="" style="edgeStyle=orthogonalEdgeStyle;fontSize=12;html=1;endArrow=halfCircle;endFill=0;strokeWidth=2;startArrow=ERone;startFill=0;" parent="RTXXcHWHW-Dh-JXgVYpc-1" target="Pdc_itYkCjrTwWyL_RnC-101" edge="1">
                    <mxGeometry width="100" height="100" relative="1" as="geometry">
                        <mxPoint x="516" y="393" as="sourcePoint"/>
                        <mxPoint x="706" y="240" as="targetPoint"/>
                        <Array as="points">
                            <mxPoint x="516" y="291"/>
                            <mxPoint x="319" y="291"/>
                        </Array>
                    </mxGeometry>
                </mxCell>
                <mxCell id="CgL5xedI93GFoSFBYOzG-4" value="" style="edgeStyle=orthogonalEdgeStyle;fontSize=12;html=1;endArrow=halfCircle;endFill=0;strokeWidth=2;startArrow=ERone;startFill=0;" parent="RTXXcHWHW-Dh-JXgVYpc-1" target="Pdc_itYkCjrTwWyL_RnC-127" edge="1">
                    <mxGeometry width="100" height="100" relative="1" as="geometry">
                        <mxPoint x="588" y="393" as="sourcePoint"/>
                        <mxPoint x="391" y="236" as="targetPoint"/>
                        <Array as="points">
                            <mxPoint x="588" y="251"/>
                            <mxPoint x="588" y="251"/>
                        </Array>
                    </mxGeometry>
                </mxCell>
                <mxCell id="CgL5xedI93GFoSFBYOzG-13" value="" style="endArrow=halfCircle;html=1;strokeWidth=2;endFill=0;startArrow=ERone;startFill=0;" parent="RTXXcHWHW-Dh-JXgVYpc-1" edge="1">
                    <mxGeometry width="50" height="50" relative="1" as="geometry">
                        <mxPoint x="677" y="419" as="sourcePoint"/>
                        <mxPoint x="1005" y="419" as="targetPoint"/>
                    </mxGeometry>
                </mxCell>
                <mxCell id="CgL5xedI93GFoSFBYOzG-14" value="" style="endArrow=ERone;html=1;strokeWidth=2;entryX=0.506;entryY=1.063;entryDx=0;entryDy=0;entryPerimeter=0;endFill=0;startArrow=ERone;startFill=0;exitX=0.486;exitY=-0.002;exitDx=0;exitDy=0;exitPerimeter=0;" parent="RTXXcHWHW-Dh-JXgVYpc-1" edge="1">
                    <mxGeometry width="50" height="50" relative="1" as="geometry">
                        <mxPoint x="583.556" y="624.6351615295409" as="sourcePoint"/>
                        <mxPoint x="583.5619999999999" y="540.52" as="targetPoint"/>
                    </mxGeometry>
                </mxCell>
            </root>
        </mxGraphModel>
    </diagram>
</mxfile>